<svg width="200" height="200" xmlns="http://www.w3.org/2000/svg">
  <defs>
    <pattern id="chatPatternLight" x="0" y="0" width="200" height="200" patternUnits="userSpaceOnUse">
      <!-- Fundo claro (bege claro) -->
      <rect width="200" height="200" fill="#efeae2"/>
      
      <!-- Chat bubbles -->
      <path d="M15 25 Q15 15 25 15 L40 15 Q50 15 50 25 L50 40 Q50 50 40 50 L28 50 L20 58 L20 50 Q15 50 15 40 Z" fill="none" stroke="#9ca3af" stroke-width="1.2" opacity="0.3"/>
      <path d="M100 40 Q100 30 110 30 L125 30 Q135 30 135 40 L135 55 Q135 65 125 65 L113 65 L105 73 L105 65 Q100 65 100 55 Z" fill="none" stroke="#9ca3af" stroke-width="1.2" opacity="0.25"/>
      <path d="M160 20 Q160 10 170 10 L185 10 Q195 10 195 20 L195 35 Q195 45 185 45 L173 45 L165 53 L165 45 Q160 45 160 35 Z" fill="none" stroke="#9ca3af" stroke-width="1.2" opacity="0.2"/>
      
      <!-- Robot heads -->
      <circle cx="40" cy="85" r="10" fill="none" stroke="#9ca3af" stroke-width="1.2" opacity="0.3"/>
      <circle cx="36" cy="82" r="1.8" fill="#9ca3af" opacity="0.3"/>
      <circle cx="44" cy="82" r="1.8" fill="#9ca3af" opacity="0.3"/>
      <path d="M38 88 Q40 90 42 88" fill="none" stroke="#9ca3af" stroke-width="1.2" opacity="0.3"/>
      <line x1="40" y1="75" x2="40" y2="72" stroke="#9ca3af" stroke-width="1.2" opacity="0.3"/>
      
      <circle cx="130" cy="100" r="9" fill="none" stroke="#9ca3af" stroke-width="1.2" opacity="0.25"/>
      <circle cx="127" cy="98" r="1.5" fill="#9ca3af" opacity="0.25"/>
      <circle cx="133" cy="98" r="1.5" fill="#9ca3af" opacity="0.25"/>
      <path d="M128 103 Q130 105 132 103" fill="none" stroke="#9ca3af" stroke-width="1.2" opacity="0.25"/>
      <line x1="130" y1="91" x2="130" y2="88" stroke="#9ca3af" stroke-width="1.2" opacity="0.25"/>
      
      <circle cx="170" cy="120" r="8" fill="none" stroke="#9ca3af" stroke-width="1.2" opacity="0.2"/>
      <circle cx="168" cy="118" r="1.3" fill="#9ca3af" opacity="0.2"/>
      <circle cx="172" cy="118" r="1.3" fill="#9ca3af" opacity="0.2"/>
      <path d="M169 123 Q170 124 171 123" fill="none" stroke="#9ca3af" stroke-width="1.2" opacity="0.2"/>
      
      <!-- Smartphones -->
      <rect x="70" y="120" width="15" height="24" rx="2" fill="none" stroke="#9ca3af" stroke-width="1.2" opacity="0.3"/>
      <rect x="73" y="125" width="9" height="12" fill="#9ca3af" opacity="0.15"/>
      <circle cx="77.5" cy="140" r="1.3" fill="#9ca3af" opacity="0.3"/>
      
      <rect x="140" y="25" width="12" height="20" rx="1.5" fill="none" stroke="#9ca3af" stroke-width="1.2" opacity="0.25"/>
      <rect x="142" y="28" width="8" height="10" fill="#9ca3af" opacity="0.12"/>
      
      <rect x="25" y="150" width="14" height="22" rx="2" fill="none" stroke="#9ca3af" stroke-width="1.2" opacity="0.2"/>
      <rect x="27" y="153" width="10" height="11" fill="#9ca3af" opacity="0.1"/>
      
      <!-- Wi-Fi signals -->
      <path d="M25 135 Q30 130 35 135" fill="none" stroke="#9ca3af" stroke-width="1.2" opacity="0.3"/>
      <path d="M23 140 Q30 133 37 140" fill="none" stroke="#9ca3af" stroke-width="1.2" opacity="0.25"/>
      <path d="M21 145 Q30 136 39 145" fill="none" stroke="#9ca3af" stroke-width="1.2" opacity="0.2"/>
      <circle cx="30" cy="148" r="1.5" fill="#9ca3af" opacity="0.25"/>
      
      <path d="M110 145 Q115 140 120 145" fill="none" stroke="#9ca3af" stroke-width="1.2" opacity="0.25"/>
      <path d="M108 150 Q115 143 122 150" fill="none" stroke="#9ca3af" stroke-width="1.2" opacity="0.2"/>
      <circle cx="115" cy="153" r="1.3" fill="#9ca3af" opacity="0.2"/>
      
      <!-- Camera lens -->
      <circle cx="85" cy="70" r="7" fill="none" stroke="#9ca3af" stroke-width="1.2" opacity="0.3"/>
      <circle cx="85" cy="70" r="3.5" fill="none" stroke="#9ca3af" stroke-width="1" opacity="0.25"/>
      
      <circle cx="155" cy="80" r="6" fill="none" stroke="#9ca3af" stroke-width="1.2" opacity="0.25"/>
      <circle cx="155" cy="80" r="3" fill="none" stroke="#9ca3af" stroke-width="1" opacity="0.2"/>
      
      <!-- Globe/Internet -->
      <circle cx="145" cy="50" r="9" fill="none" stroke="#9ca3af" stroke-width="1.2" opacity="0.25"/>
      <path d="M136 50 Q145 45 154 50" fill="none" stroke="#9ca3af" stroke-width="1" opacity="0.25"/>
      <path d="M136 50 Q145 55 154 50" fill="none" stroke="#9ca3af" stroke-width="1" opacity="0.25"/>
      <line x1="145" y1="41" x2="145" y2="59" stroke="#9ca3af" stroke-width="1" opacity="0.25"/>
      
      <!-- Instagram logo (outline) -->
      <rect x="20" y="155" width="18" height="18" rx="4" fill="none" stroke="#9ca3af" stroke-width="1.2" opacity="0.25"/>
      <circle cx="29" cy="164" r="5.5" fill="none" stroke="#9ca3af" stroke-width="1.2" opacity="0.25"/>
      <circle cx="34" cy="159" r="1.8" fill="#9ca3af" opacity="0.25"/>
      
      <!-- Laptop -->
      <rect x="115" y="130" width="28" height="18" rx="1" fill="none" stroke="#9ca3af" stroke-width="1.2" opacity="0.25"/>
      <rect x="117" y="132" width="24" height="12" fill="#9ca3af" opacity="0.1"/>
      <rect x="125" y="148" width="8" height="1.5" rx="0.5" fill="#9ca3af" opacity="0.25"/>
      
      <!-- Headphones -->
      <path d="M55 25 Q50 25 50 30 L50 38 Q50 43 55 43" fill="none" stroke="#9ca3af" stroke-width="1.2" opacity="0.3"/>
      <path d="M75 25 Q80 25 80 30 L80 38 Q80 43 75 43" fill="none" stroke="#9ca3af" stroke-width="1.2" opacity="0.3"/>
      <path d="M55 34 Q65 34 75 34" fill="none" stroke="#9ca3af" stroke-width="1.2" opacity="0.3"/>
      
      <!-- @ symbol -->
      <circle cx="90" cy="155" r="5.5" fill="none" stroke="#9ca3af" stroke-width="1.2" opacity="0.25"/>
      <path d="M85 155 Q90 150 95 155 Q95 160 90 160" fill="none" stroke="#9ca3af" stroke-width="1.2" opacity="0.25"/>
      
      <!-- Heart shape -->
      <path d="M180 45 Q175 40 170 45 Q170 50 175 55 L180 60 L185 55 Q190 50 190 45 Q185 40 180 45" fill="none" stroke="#9ca3af" stroke-width="1.2" opacity="0.2"/>
      
      <!-- Briefcase -->
      <rect x="60" y="165" width="20" height="15" rx="1" fill="none" stroke="#9ca3af" stroke-width="1.2" opacity="0.25"/>
      <rect x="65" y="168" width="10" height="8" fill="#9ca3af" opacity="0.1"/>
      <path d="M55 165 L85 165" stroke="#9ca3af" stroke-width="1.2" opacity="0.25"/>
      
      <!-- Small dots scattered -->
      <circle cx="12" cy="12" r="1.5" fill="#9ca3af" opacity="0.2"/>
      <circle cx="188" cy="20" r="1.5" fill="#9ca3af" opacity="0.2"/>
      <circle cx="30" cy="40" r="1.2" fill="#9ca3af" opacity="0.2"/>
      <circle cx="165" cy="50" r="1.2" fill="#9ca3af" opacity="0.2"/>
      <circle cx="60" cy="20" r="1.5" fill="#9ca3af" opacity="0.2"/>
      <circle cx="120" cy="12" r="1.2" fill="#9ca3af" opacity="0.2"/>
      <circle cx="40" cy="150" r="1.5" fill="#9ca3af" opacity="0.2"/>
      <circle cx="175" cy="140" r="1.2" fill="#9ca3af" opacity="0.2"/>
      <circle cx="80" cy="180" r="1.5" fill="#9ca3af" opacity="0.2"/>
      <circle cx="150" cy="170" r="1.2" fill="#9ca3af" opacity="0.2"/>
      <circle cx="10" cy="100" r="1.2" fill="#9ca3af" opacity="0.2"/>
      <circle cx="190" cy="110" r="1.2" fill="#9ca3af" opacity="0.2"/>
      <circle cx="50" cy="60" r="1" fill="#9ca3af" opacity="0.2"/>
      <circle cx="160" cy="65" r="1" fill="#9ca3af" opacity="0.2"/>
    </pattern>
  </defs>
  <rect width="200" height="200" fill="url(#chatPatternLight)"/>
</svg>
